<?xml version="1.0" encoding="UTF-8"?>
<svg id="Layer_1" data-name="Layer 1" xmlns="http://www.w3.org/2000/svg" xmlns:xlink="http://www.w3.org/1999/xlink" viewBox="0 0 663 408">
  <defs>
    <style>
      .cls-1 {
        fill: url(#linear-gradient-5);
      }

      .cls-2 {
        fill: url(#linear-gradient-6);
      }

      .cls-3 {
        fill: url(#linear-gradient);
      }

      .cls-4 {
        fill: url(#linear-gradient-2);
      }

      .cls-5 {
        fill: url(#linear-gradient-4);
      }

      .cls-6 {
        fill: url(#linear-gradient-3);
      }
    </style>
    <linearGradient id="linear-gradient" x1="271.57" y1="-149.03" x2="729.14" y2="394.12" gradientTransform="matrix(1, 0, 0, 1, 0, 0)" gradientUnits="userSpaceOnUse">
      <stop offset="0" stop-color="#f0f"/>
      <stop offset=".52" stop-color="#fbb03b"/>
    </linearGradient>
    <linearGradient id="linear-gradient-2" x1="288.96" y1="-163.68" x2="746.54" y2="379.47" xlink:href="#linear-gradient"/>
    <linearGradient id="linear-gradient-3" x1="170.84" y1="-64.17" x2="628.41" y2="478.99" xlink:href="#linear-gradient"/>
    <linearGradient id="linear-gradient-4" x1="111.36" y1="-14.06" x2="568.93" y2="529.09" xlink:href="#linear-gradient"/>
    <linearGradient id="linear-gradient-5" x1="12.5" y1="69.22" x2="470.07" y2="612.37" xlink:href="#linear-gradient"/>
    <linearGradient id="linear-gradient-6" x1="16.49" y1="65.86" x2="474.07" y2="609.01" xlink:href="#linear-gradient"/>
  </defs>
  <path class="cls-3" d="M662.89,148.67l-27.89,82.33h-84.11c-1.34,0-2.53,.86-2.95,2.13l-4.34,13.12c-.66,1.99,.82,4.06,2.92,4.07l76.14,.64c2.12,.02,3.6,2.13,2.9,4.14l-9.16,26c-.44,1.24-1.61,2.07-2.93,2.07h-83.26l-20.58,.13-6.31-.13h-7.51l.06-.15-.87-.02,36.08-101h-.08l11.25-31.28c.44-1.23,1.61-2.05,2.92-2.05h117.72Zm-46.09,37.46c.71-2.01-.79-4.13-2.93-4.13h-46.77c-1.34,0-2.53,.86-2.95,2.13l-4.33,13.11c-.66,2,.81,4.06,2.92,4.08l46.35,.39c1.33,0,2.51-.83,2.95-2.08l4.76-13.5Z"/>
  <path class="cls-4" d="M613.87,182c2.14,0,3.64,2.12,2.93,4.13l-4.76,13.5c-.44,1.25-1.62,2.09-2.95,2.08l-46.35-.39c-2.11-.02-3.58-2.08-2.92-4.08l4.33-13.11c.42-1.27,1.61-2.13,2.95-2.13h46.77Z"/>
  <path class="cls-6" d="M516.69,150c2.12,0,3.62,2.08,2.95,4.09l-83.93,251.79c-.43,1.27-1.61,2.12-2.95,2.12h-29.58c-1.31,0-2.48-.82-2.92-2.05L268.47,42.42c-.12-.34-.18-.7-.18-1.06l-.36-.2c0,.36-.07,.71-.19,1.05l-32.43,89.94c-.45,1.23-1.62,2.05-2.92,2.05h-26.42c-2.12,0-3.62-2.07-2.95-4.08L245.47,1.81c.42-1.26,1.6-2.12,2.93-2.12l39.47,.21c1.3,0,2.46,.83,2.9,2.06l122.96,346.17c.99,2.79,4.95,2.75,5.88-.06l64.69-195.94c.42-1.27,1.6-2.13,2.94-2.13h29.45Z"/>
  <path class="cls-5" d="M306.64,180.92c.67,2.01-.83,4.08-2.94,4.08l-69.67,.02c-2.15,0-3.64-2.13-2.92-4.15l10.77-30.15c.44-1.24,1.62-2.07,2.94-2.06l48.96,.33c1.33,0,2.5,.86,2.92,2.12l9.94,29.81Z"/>
  <path class="cls-1" d="M226.38,148.19c2.12,0,3.61,2.07,2.95,4.08l-42.45,128.3c-.42,1.27-1.6,2.12-2.93,2.13l-39.41,.21c-1.34-.01-2.51-.86-2.93-2.13l-24.09-72.81c-.94-2.84-4.95-2.84-5.89,0l-24.06,72.71c-.42,1.26-1.59,2.12-2.93,2.13l-39.4,.19c-1.34,0-2.52-.86-2.94-2.13L-.15,152.58c-.67-2.01,.83-4.08,2.95-4.08H29.22c1.31,0,2.47,.82,2.92,2.04l32.67,89.95,32.93-90.15c.44-1.23,1.61-2.05,2.91-2.05h28.38c1.4,0,2.66,.89,3.13,2.21l.05,.15,32.21,90.58c0-.36,32.62-90.99,32.62-90.99,.45-1.23,1.61-2.05,2.92-2.05h26.42Zm-62.5,92.2l.18,1.05c0-.36-.06-.72-.18-1.05Z"/>
  <path class="cls-2" d="M164.06,241.44l-.18-1.05c.12,.33,.18,.69,.18,1.05Z"/>
</svg>